<mxfile host="app.diagrams.net" modified="2020-12-19T16:36:39.929Z" agent="5.0 (Windows NT 10.0; Win64; x64) AppleWebKit/537.36 (KHTML, like Gecko) Chrome/87.0.4280.88 Safari/537.36 Edg/87.0.664.60" etag="FOvXiG2oxEqUmWL2WxMf" version="14.1.1" type="github">
  <diagram id="C5RBs43oDa-KdzZeNtuy" name="Page-1">
    <mxGraphModel dx="1481" dy="840" grid="1" gridSize="10" guides="1" tooltips="1" connect="1" arrows="1" fold="1" page="1" pageScale="1" pageWidth="827" pageHeight="1169" math="0" shadow="0">
      <root>
        <mxCell id="WIyWlLk6GJQsqaUBKTNV-0" />
        <mxCell id="WIyWlLk6GJQsqaUBKTNV-1" parent="WIyWlLk6GJQsqaUBKTNV-0" />
        <mxCell id="WIyWlLk6GJQsqaUBKTNV-2" value="" style="rounded=0;html=1;jettySize=auto;orthogonalLoop=1;fontSize=11;endArrow=block;endFill=0;endSize=8;strokeWidth=1;shadow=0;labelBackgroundColor=none;edgeStyle=orthogonalEdgeStyle;" parent="WIyWlLk6GJQsqaUBKTNV-1" source="WIyWlLk6GJQsqaUBKTNV-3" target="WIyWlLk6GJQsqaUBKTNV-6" edge="1">
          <mxGeometry relative="1" as="geometry" />
        </mxCell>
        <mxCell id="WIyWlLk6GJQsqaUBKTNV-3" value="init FRONT END" style="rounded=1;whiteSpace=wrap;html=1;fontSize=12;glass=0;strokeWidth=1;shadow=0;" parent="WIyWlLk6GJQsqaUBKTNV-1" vertex="1">
          <mxGeometry x="160" y="50" width="120" height="40" as="geometry" />
        </mxCell>
        <mxCell id="WIyWlLk6GJQsqaUBKTNV-4" value="Yes" style="rounded=0;html=1;jettySize=auto;orthogonalLoop=1;fontSize=11;endArrow=block;endFill=0;endSize=8;strokeWidth=1;shadow=0;labelBackgroundColor=none;edgeStyle=orthogonalEdgeStyle;" parent="WIyWlLk6GJQsqaUBKTNV-1" source="WIyWlLk6GJQsqaUBKTNV-6" target="WIyWlLk6GJQsqaUBKTNV-10" edge="1">
          <mxGeometry y="20" relative="1" as="geometry">
            <mxPoint as="offset" />
          </mxGeometry>
        </mxCell>
        <mxCell id="WIyWlLk6GJQsqaUBKTNV-5" value="No" style="edgeStyle=orthogonalEdgeStyle;rounded=0;html=1;jettySize=auto;orthogonalLoop=1;fontSize=11;endArrow=block;endFill=0;endSize=8;strokeWidth=1;shadow=0;labelBackgroundColor=none;" parent="WIyWlLk6GJQsqaUBKTNV-1" source="WIyWlLk6GJQsqaUBKTNV-6" target="WIyWlLk6GJQsqaUBKTNV-7" edge="1">
          <mxGeometry y="10" relative="1" as="geometry">
            <mxPoint as="offset" />
          </mxGeometry>
        </mxCell>
        <mxCell id="WIyWlLk6GJQsqaUBKTNV-6" value="Lamp&lt;br&gt;plugged in?" style="rhombus;whiteSpace=wrap;html=1;shadow=0;fontFamily=Helvetica;fontSize=12;align=center;strokeWidth=1;spacing=6;spacingTop=-4;" parent="WIyWlLk6GJQsqaUBKTNV-1" vertex="1">
          <mxGeometry x="170" y="170" width="100" height="80" as="geometry" />
        </mxCell>
        <mxCell id="WIyWlLk6GJQsqaUBKTNV-7" value="Plug in lamp" style="rounded=1;whiteSpace=wrap;html=1;fontSize=12;glass=0;strokeWidth=1;shadow=0;" parent="WIyWlLk6GJQsqaUBKTNV-1" vertex="1">
          <mxGeometry x="320" y="190" width="120" height="40" as="geometry" />
        </mxCell>
        <mxCell id="WIyWlLk6GJQsqaUBKTNV-8" value="No" style="rounded=0;html=1;jettySize=auto;orthogonalLoop=1;fontSize=11;endArrow=block;endFill=0;endSize=8;strokeWidth=1;shadow=0;labelBackgroundColor=none;edgeStyle=orthogonalEdgeStyle;" parent="WIyWlLk6GJQsqaUBKTNV-1" source="WIyWlLk6GJQsqaUBKTNV-10" target="WIyWlLk6GJQsqaUBKTNV-11" edge="1">
          <mxGeometry x="0.3333" y="20" relative="1" as="geometry">
            <mxPoint as="offset" />
          </mxGeometry>
        </mxCell>
        <mxCell id="WIyWlLk6GJQsqaUBKTNV-9" value="Yes" style="edgeStyle=orthogonalEdgeStyle;rounded=0;html=1;jettySize=auto;orthogonalLoop=1;fontSize=11;endArrow=block;endFill=0;endSize=8;strokeWidth=1;shadow=0;labelBackgroundColor=none;" parent="WIyWlLk6GJQsqaUBKTNV-1" source="WIyWlLk6GJQsqaUBKTNV-10" target="WIyWlLk6GJQsqaUBKTNV-12" edge="1">
          <mxGeometry y="10" relative="1" as="geometry">
            <mxPoint as="offset" />
          </mxGeometry>
        </mxCell>
        <mxCell id="WIyWlLk6GJQsqaUBKTNV-10" value="Bulb&lt;br&gt;burned out?" style="rhombus;whiteSpace=wrap;html=1;shadow=0;fontFamily=Helvetica;fontSize=12;align=center;strokeWidth=1;spacing=6;spacingTop=-4;" parent="WIyWlLk6GJQsqaUBKTNV-1" vertex="1">
          <mxGeometry x="170" y="290" width="100" height="80" as="geometry" />
        </mxCell>
        <mxCell id="WIyWlLk6GJQsqaUBKTNV-11" value="Repair Lamp" style="rounded=1;whiteSpace=wrap;html=1;fontSize=12;glass=0;strokeWidth=1;shadow=0;" parent="WIyWlLk6GJQsqaUBKTNV-1" vertex="1">
          <mxGeometry x="160" y="430" width="120" height="40" as="geometry" />
        </mxCell>
        <mxCell id="WIyWlLk6GJQsqaUBKTNV-12" value="Replace Bulb" style="rounded=1;whiteSpace=wrap;html=1;fontSize=12;glass=0;strokeWidth=1;shadow=0;" parent="WIyWlLk6GJQsqaUBKTNV-1" vertex="1">
          <mxGeometry x="320" y="310" width="120" height="40" as="geometry" />
        </mxCell>
        <mxCell id="Rcf6yS_RA1J2sr0fgLPV-1" value="setup graphics" style="rounded=1;whiteSpace=wrap;html=1;" vertex="1" parent="WIyWlLk6GJQsqaUBKTNV-1">
          <mxGeometry x="550" y="220" width="90" height="40" as="geometry" />
        </mxCell>
        <mxCell id="Rcf6yS_RA1J2sr0fgLPV-10" value="" style="edgeStyle=orthogonalEdgeStyle;rounded=0;orthogonalLoop=1;jettySize=auto;html=1;" edge="1" parent="WIyWlLk6GJQsqaUBKTNV-1" source="Rcf6yS_RA1J2sr0fgLPV-2" target="Rcf6yS_RA1J2sr0fgLPV-3">
          <mxGeometry relative="1" as="geometry" />
        </mxCell>
        <mxCell id="Rcf6yS_RA1J2sr0fgLPV-2" value="setup databases&lt;br&gt;" style="rounded=1;whiteSpace=wrap;html=1;" vertex="1" parent="WIyWlLk6GJQsqaUBKTNV-1">
          <mxGeometry x="550" y="80" width="90" height="40" as="geometry" />
        </mxCell>
        <mxCell id="Rcf6yS_RA1J2sr0fgLPV-11" value="" style="edgeStyle=orthogonalEdgeStyle;rounded=0;orthogonalLoop=1;jettySize=auto;html=1;" edge="1" parent="WIyWlLk6GJQsqaUBKTNV-1" source="Rcf6yS_RA1J2sr0fgLPV-3" target="Rcf6yS_RA1J2sr0fgLPV-1">
          <mxGeometry relative="1" as="geometry" />
        </mxCell>
        <mxCell id="Rcf6yS_RA1J2sr0fgLPV-3" value="&lt;span&gt;read from databases&lt;/span&gt;" style="rounded=1;whiteSpace=wrap;html=1;" vertex="1" parent="WIyWlLk6GJQsqaUBKTNV-1">
          <mxGeometry x="547.5" y="150" width="95" height="40" as="geometry" />
        </mxCell>
        <mxCell id="Rcf6yS_RA1J2sr0fgLPV-37" value="" style="edgeStyle=orthogonalEdgeStyle;rounded=0;orthogonalLoop=1;jettySize=auto;html=1;" edge="1" parent="WIyWlLk6GJQsqaUBKTNV-1" source="Rcf6yS_RA1J2sr0fgLPV-36" target="Rcf6yS_RA1J2sr0fgLPV-12">
          <mxGeometry relative="1" as="geometry" />
        </mxCell>
        <mxCell id="Rcf6yS_RA1J2sr0fgLPV-40" value="" style="edgeStyle=orthogonalEdgeStyle;rounded=0;orthogonalLoop=1;jettySize=auto;html=1;" edge="1" parent="WIyWlLk6GJQsqaUBKTNV-1" source="Rcf6yS_RA1J2sr0fgLPV-12" target="Rcf6yS_RA1J2sr0fgLPV-39">
          <mxGeometry relative="1" as="geometry" />
        </mxCell>
        <mxCell id="Rcf6yS_RA1J2sr0fgLPV-12" value="invia comando 0xAA&lt;br&gt;(Check Communication)" style="rounded=1;whiteSpace=wrap;html=1;" vertex="1" parent="WIyWlLk6GJQsqaUBKTNV-1">
          <mxGeometry x="1220" y="440" width="140" height="60" as="geometry" />
        </mxCell>
        <mxCell id="Rcf6yS_RA1J2sr0fgLPV-25" value="SI" style="edgeStyle=orthogonalEdgeStyle;rounded=0;orthogonalLoop=1;jettySize=auto;html=1;" edge="1" parent="WIyWlLk6GJQsqaUBKTNV-1" source="Rcf6yS_RA1J2sr0fgLPV-15" target="Rcf6yS_RA1J2sr0fgLPV-24">
          <mxGeometry relative="1" as="geometry" />
        </mxCell>
        <mxCell id="Rcf6yS_RA1J2sr0fgLPV-70" value="" style="edgeStyle=orthogonalEdgeStyle;rounded=0;orthogonalLoop=1;jettySize=auto;html=1;" edge="1" parent="WIyWlLk6GJQsqaUBKTNV-1" source="Rcf6yS_RA1J2sr0fgLPV-15" target="Rcf6yS_RA1J2sr0fgLPV-69">
          <mxGeometry relative="1" as="geometry" />
        </mxCell>
        <mxCell id="Rcf6yS_RA1J2sr0fgLPV-15" value="ricevo 0xAA in risposta?" style="rhombus;whiteSpace=wrap;html=1;rounded=1;" vertex="1" parent="WIyWlLk6GJQsqaUBKTNV-1">
          <mxGeometry x="1240" y="680" width="100" height="100" as="geometry" />
        </mxCell>
        <mxCell id="Rcf6yS_RA1J2sr0fgLPV-20" value="" style="edgeStyle=orthogonalEdgeStyle;rounded=0;orthogonalLoop=1;jettySize=auto;html=1;" edge="1" parent="WIyWlLk6GJQsqaUBKTNV-1" source="Rcf6yS_RA1J2sr0fgLPV-17" target="Rcf6yS_RA1J2sr0fgLPV-19">
          <mxGeometry relative="1" as="geometry" />
        </mxCell>
        <mxCell id="Rcf6yS_RA1J2sr0fgLPV-17" value="&lt;strike&gt;chiudo la comunicazione sulla porta COM&lt;/strike&gt;" style="whiteSpace=wrap;html=1;rounded=1;" vertex="1" parent="WIyWlLk6GJQsqaUBKTNV-1">
          <mxGeometry x="1610" y="850" width="120" height="60" as="geometry" />
        </mxCell>
        <mxCell id="Rcf6yS_RA1J2sr0fgLPV-35" value="" style="edgeStyle=orthogonalEdgeStyle;rounded=0;orthogonalLoop=1;jettySize=auto;html=1;" edge="1" parent="WIyWlLk6GJQsqaUBKTNV-1" source="Rcf6yS_RA1J2sr0fgLPV-19" target="Rcf6yS_RA1J2sr0fgLPV-34">
          <mxGeometry relative="1" as="geometry" />
        </mxCell>
        <mxCell id="Rcf6yS_RA1J2sr0fgLPV-19" value="setto errore dispositivo non risponde" style="whiteSpace=wrap;html=1;rounded=1;" vertex="1" parent="WIyWlLk6GJQsqaUBKTNV-1">
          <mxGeometry x="1610" y="990" width="120" height="60" as="geometry" />
        </mxCell>
        <mxCell id="Rcf6yS_RA1J2sr0fgLPV-27" value="" style="edgeStyle=orthogonalEdgeStyle;rounded=0;orthogonalLoop=1;jettySize=auto;html=1;" edge="1" parent="WIyWlLk6GJQsqaUBKTNV-1" source="Rcf6yS_RA1J2sr0fgLPV-24" target="Rcf6yS_RA1J2sr0fgLPV-26">
          <mxGeometry relative="1" as="geometry" />
        </mxCell>
        <mxCell id="Rcf6yS_RA1J2sr0fgLPV-24" value="Invio Byte:&lt;br&gt;-nPinConn1&lt;br&gt;-nPinConn2" style="whiteSpace=wrap;html=1;rounded=1;" vertex="1" parent="WIyWlLk6GJQsqaUBKTNV-1">
          <mxGeometry x="1230" y="860" width="120" height="60" as="geometry" />
        </mxCell>
        <mxCell id="Rcf6yS_RA1J2sr0fgLPV-48" value="No" style="edgeStyle=orthogonalEdgeStyle;rounded=0;orthogonalLoop=1;jettySize=auto;html=1;exitX=0;exitY=0.5;exitDx=0;exitDy=0;" edge="1" parent="WIyWlLk6GJQsqaUBKTNV-1" source="Rcf6yS_RA1J2sr0fgLPV-26">
          <mxGeometry x="-0.8261" relative="1" as="geometry">
            <mxPoint x="1290" y="960" as="targetPoint" />
            <Array as="points">
              <mxPoint x="1190" y="1030" />
              <mxPoint x="1190" y="960" />
              <mxPoint x="1290" y="960" />
            </Array>
            <mxPoint as="offset" />
          </mxGeometry>
        </mxCell>
        <mxCell id="Rcf6yS_RA1J2sr0fgLPV-49" style="edgeStyle=orthogonalEdgeStyle;rounded=0;orthogonalLoop=1;jettySize=auto;html=1;exitX=0.5;exitY=1;exitDx=0;exitDy=0;entryX=0.5;entryY=0;entryDx=0;entryDy=0;" edge="1" parent="WIyWlLk6GJQsqaUBKTNV-1" source="Rcf6yS_RA1J2sr0fgLPV-26" target="Rcf6yS_RA1J2sr0fgLPV-34">
          <mxGeometry relative="1" as="geometry" />
        </mxCell>
        <mxCell id="Rcf6yS_RA1J2sr0fgLPV-26" value="Ricevo &lt;br&gt;0xFF?" style="rhombus;whiteSpace=wrap;html=1;rounded=1;" vertex="1" parent="WIyWlLk6GJQsqaUBKTNV-1">
          <mxGeometry x="1250" y="990" width="80" height="80" as="geometry" />
        </mxCell>
        <mxCell id="Rcf6yS_RA1J2sr0fgLPV-34" value="END" style="whiteSpace=wrap;html=1;rounded=1;" vertex="1" parent="WIyWlLk6GJQsqaUBKTNV-1">
          <mxGeometry x="1610" y="1300" width="120" height="60" as="geometry" />
        </mxCell>
        <mxCell id="Rcf6yS_RA1J2sr0fgLPV-36" value="CONFIG" style="whiteSpace=wrap;html=1;rounded=1;" vertex="1" parent="WIyWlLk6GJQsqaUBKTNV-1">
          <mxGeometry x="1230" y="320" width="120" height="60" as="geometry" />
        </mxCell>
        <mxCell id="Rcf6yS_RA1J2sr0fgLPV-42" value="" style="edgeStyle=orthogonalEdgeStyle;rounded=0;orthogonalLoop=1;jettySize=auto;html=1;" edge="1" parent="WIyWlLk6GJQsqaUBKTNV-1" source="Rcf6yS_RA1J2sr0fgLPV-39" target="Rcf6yS_RA1J2sr0fgLPV-15">
          <mxGeometry relative="1" as="geometry" />
        </mxCell>
        <mxCell id="Rcf6yS_RA1J2sr0fgLPV-39" value="check response&lt;br&gt;count=0" style="whiteSpace=wrap;html=1;rounded=1;" vertex="1" parent="WIyWlLk6GJQsqaUBKTNV-1">
          <mxGeometry x="1230" y="550" width="120" height="60" as="geometry" />
        </mxCell>
        <mxCell id="Rcf6yS_RA1J2sr0fgLPV-72" value="" style="edgeStyle=orthogonalEdgeStyle;rounded=0;orthogonalLoop=1;jettySize=auto;html=1;" edge="1" parent="WIyWlLk6GJQsqaUBKTNV-1" source="Rcf6yS_RA1J2sr0fgLPV-69" target="Rcf6yS_RA1J2sr0fgLPV-71">
          <mxGeometry relative="1" as="geometry" />
        </mxCell>
        <mxCell id="Rcf6yS_RA1J2sr0fgLPV-69" value="count+=1" style="whiteSpace=wrap;html=1;rounded=1;" vertex="1" parent="WIyWlLk6GJQsqaUBKTNV-1">
          <mxGeometry x="1410" y="700" width="120" height="60" as="geometry" />
        </mxCell>
        <mxCell id="Rcf6yS_RA1J2sr0fgLPV-73" value="Si" style="edgeStyle=orthogonalEdgeStyle;rounded=0;orthogonalLoop=1;jettySize=auto;html=1;" edge="1" parent="WIyWlLk6GJQsqaUBKTNV-1" source="Rcf6yS_RA1J2sr0fgLPV-71" target="Rcf6yS_RA1J2sr0fgLPV-17">
          <mxGeometry relative="1" as="geometry" />
        </mxCell>
        <mxCell id="Rcf6yS_RA1J2sr0fgLPV-75" value="No" style="edgeStyle=orthogonalEdgeStyle;rounded=0;orthogonalLoop=1;jettySize=auto;html=1;" edge="1" parent="WIyWlLk6GJQsqaUBKTNV-1" source="Rcf6yS_RA1J2sr0fgLPV-71" target="Rcf6yS_RA1J2sr0fgLPV-74">
          <mxGeometry relative="1" as="geometry" />
        </mxCell>
        <mxCell id="Rcf6yS_RA1J2sr0fgLPV-71" value="count==3?" style="rhombus;whiteSpace=wrap;html=1;rounded=1;" vertex="1" parent="WIyWlLk6GJQsqaUBKTNV-1">
          <mxGeometry x="1630" y="690" width="80" height="80" as="geometry" />
        </mxCell>
        <mxCell id="Rcf6yS_RA1J2sr0fgLPV-76" style="edgeStyle=orthogonalEdgeStyle;rounded=0;orthogonalLoop=1;jettySize=auto;html=1;exitX=1;exitY=0.5;exitDx=0;exitDy=0;" edge="1" parent="WIyWlLk6GJQsqaUBKTNV-1" source="Rcf6yS_RA1J2sr0fgLPV-74">
          <mxGeometry relative="1" as="geometry">
            <mxPoint x="1290" y="650" as="targetPoint" />
            <Array as="points">
              <mxPoint x="1940" y="730" />
              <mxPoint x="1940" y="650" />
            </Array>
          </mxGeometry>
        </mxCell>
        <mxCell id="Rcf6yS_RA1J2sr0fgLPV-74" value="wait 300ms" style="whiteSpace=wrap;html=1;rounded=1;" vertex="1" parent="WIyWlLk6GJQsqaUBKTNV-1">
          <mxGeometry x="1770" y="700" width="120" height="60" as="geometry" />
        </mxCell>
      </root>
    </mxGraphModel>
  </diagram>
</mxfile>
